# xmcd
#
# Track frame offsets:
#	150
#	10194
#	19224
#	29553
#	39941
#	53363
#	66643
#	78387
#	90690
#	103050
#	116646
#	127545
#	141806
#	158830
#	174106
#	187687
#	206980
#	220323
#
# Disc length: 3122
#
# Revision: 2
# Processed by: cddbd v1.5.1PL0 Copyright (c) Steve Scherf et al.
# Submitted via: EasyCDDAExtractor 4.6.9.1
# Normalized: r0:TDELIM( - ),TSWAP
#
DISCID=ea0c3012
DTITLE=Various Artist - Ridin' West Disc 2
DYEAR=1900
DGENRE=Country
TTITLE0=Sons Of The Pioneers - Red River Valley
TTITLE1=Don Edwards - Whoppi Ti Yi Yo
TTITLE2=Marty Robbins - Billy The Kid
TTITLE3=Johnny Horton - Johnny Reb
TTITLE4=The Horse Soilders - Two Brothers
TTITLE5=Marty Robbins - She Was Young And She Was Pretty
TTITLE6=Gene Autry - Buttons and Bows
TTITLE7=Johnny\t Cash - Green Grow The Lilacs
TTITLE8=Marty Robbins - Streets Of Laredo
TTITLE9=Gene Autry - (There'll Never Be Another) Pecos Bill
TTITLE10=Sons Of The Pioneers - Tumblin' Tumbleweeds
TTITLE11=Tex Ritter - Rye Whisky
TTITLE12=Don\tEdwards\t - Little Joe- The Wrangler
TTITLE13=Marty Robbins - Strawberry Roan
TTITLE14=Kingston Trio\t - Tom Dooley
TTITLE15=Johnny\t Cash\t - Hardin'  Wouldn't Run
TTITLE16=Marty Robbins - Abeline Rose
TTITLE17=Gene Autry - Mexicali Rose
EXTD=
EXTT0=
EXTT1=
EXTT2=
EXTT3=
EXTT4=
EXTT5=
EXTT6=
EXTT7=
EXTT8=
EXTT9=
EXTT10=
EXTT11=
EXTT12=
EXTT13=
EXTT14=
EXTT15=
EXTT16=
EXTT17=
PLAYORDER=
